<svg width="32" height="40" viewBox="0 0 32 40" fill="none" xmlns="http://www.w3.org/2000/svg">
<path d="M30.82 10.8202L21.16 1.16024C20.42 0.420244 19.4 0.000244141 18.34 0.000244141H4C1.8 0.000244141 0.0200005 1.80024 0.0200005 4.00024L0 36.0002C0 38.2002 1.78 40.0002 3.98 40.0002H28C30.2 40.0002 32 38.2002 32 36.0002V13.6602C32 12.6002 31.58 11.5802 30.82 10.8202ZM21.6 26.0002H18V32.0002C18 33.1002 17.1 34.0002 16 34.0002C14.9 34.0002 14 33.1002 14 32.0002V26.0002H10.42C9.52 26.0002 9.08 24.9202 9.72 24.3002L15.32 18.7202C15.72 18.3402 16.34 18.3402 16.74 18.7202L22.32 24.3002C22.92 24.9202 22.48 26.0002 21.6 26.0002ZM20 14.0002C18.9 14.0002 18 13.1002 18 12.0002V3.00024L29 14.0002H20Z" fill="#206FEB"/>
</svg>
