<svg width="270" height="44" viewBox="0 0 270 44" fill="none" xmlns="http://www.w3.org/2000/svg">
<path d="M3.26599 38.7225L1.40923 43.2419C1.38816 43.3051 1.35129 43.3552 1.29862 43.392C1.24594 43.4289 1.19064 43.4473 1.13269 43.4473C1.03261 43.4473 0.95887 43.421 0.911464 43.3683C0.864057 43.3157 0.840354 43.2525 0.840354 43.1787C0.835087 43.1418 0.840354 43.1023 0.856156 43.0602L2.90254 38.0825C2.92887 38.0088 2.96838 37.9561 3.02105 37.9245C3.07899 37.8876 3.1422 37.8718 3.21068 37.8771C3.27915 37.8771 3.33973 37.8955 3.3924 37.9324C3.45034 37.9693 3.48985 38.0193 3.51092 38.0825L5.5494 43.0128C5.5652 43.0549 5.5731 43.0971 5.5731 43.1392C5.5731 43.234 5.5415 43.3104 5.47829 43.3683C5.41508 43.421 5.34397 43.4473 5.26496 43.4473C5.20175 43.4473 5.14381 43.4289 5.09113 43.392C5.03846 43.3552 4.99895 43.3025 4.97262 43.234L3.09216 38.7146L3.26599 38.7225ZM1.80429 41.954L2.07292 41.3378H4.41954L4.53806 41.954H1.80429Z" fill="#718399"/>
<path d="M15.5201 37.9008C15.8098 37.9008 16.0706 37.9719 16.3023 38.1141C16.5341 38.2563 16.7158 38.4512 16.8475 38.6988C16.9845 38.9464 17.0529 39.2282 17.0529 39.5442C17.0529 39.855 16.9845 40.1368 16.8475 40.3896C16.7158 40.6425 16.5341 40.8426 16.3023 40.9901C16.0706 41.1376 15.8098 41.2113 15.5201 41.2113H13.9162L13.9715 41.1165V43.1076C13.9715 43.1971 13.9425 43.2735 13.8846 43.3367C13.8267 43.3999 13.7529 43.4315 13.6634 43.4315C13.5686 43.4315 13.4922 43.3999 13.4342 43.3367C13.3816 43.2735 13.3552 43.1971 13.3552 43.1076V38.2168C13.3552 38.1273 13.3842 38.0535 13.4421 37.9956C13.5054 37.9324 13.5817 37.9008 13.6713 37.9008H15.5201ZM15.5201 40.603C15.6939 40.603 15.8467 40.5556 15.9784 40.4607C16.1101 40.3659 16.2154 40.2369 16.2944 40.0736C16.3734 39.9103 16.4129 39.7338 16.4129 39.5442C16.4129 39.3441 16.3734 39.1676 16.2944 39.0148C16.2154 38.8621 16.1101 38.7409 15.9784 38.6514C15.8467 38.5566 15.6939 38.5092 15.5201 38.5092H13.9162L13.9715 38.4223V40.682L13.9162 40.603H15.5201Z" fill="#718399"/>
<path d="M20.8188 43.4315C20.7188 43.4315 20.6319 43.3999 20.5581 43.3367C20.4896 43.2735 20.4554 43.1971 20.4554 43.1076V38.2168C20.4554 38.1273 20.4844 38.0535 20.5423 37.9956C20.6055 37.9324 20.6819 37.9008 20.7714 37.9008H22.9521C23.2471 37.9008 23.5131 37.9693 23.7501 38.1062C23.9872 38.2379 24.1742 38.4223 24.3111 38.6593C24.4533 38.8911 24.5245 39.1597 24.5245 39.4652C24.5245 39.6864 24.4823 39.8945 24.398 40.0894C24.3138 40.279 24.1979 40.4449 24.0504 40.5872C23.9029 40.7241 23.7343 40.8295 23.5447 40.9032L23.3709 40.7768C23.55 40.8189 23.7106 40.8953 23.8529 41.0059C23.9951 41.1113 24.111 41.2482 24.2005 41.4168C24.2901 41.5801 24.3375 41.7723 24.3427 41.9935C24.3533 42.1884 24.3664 42.3438 24.3822 42.4597C24.398 42.5756 24.4217 42.6678 24.4533 42.7362C24.4849 42.7995 24.5297 42.8495 24.5877 42.8864C24.6614 42.9338 24.7088 42.997 24.7299 43.076C24.7562 43.155 24.743 43.2314 24.6904 43.3051C24.6588 43.3525 24.614 43.3868 24.5561 43.4078C24.4981 43.4236 24.4402 43.4289 24.3822 43.4236C24.3243 43.4184 24.2743 43.4026 24.2321 43.3762C24.1478 43.3288 24.0662 43.2604 23.9872 43.1708C23.9082 43.076 23.8423 42.9417 23.7896 42.7679C23.737 42.594 23.7106 42.357 23.7106 42.0568C23.7106 41.8882 23.6843 41.7486 23.6316 41.638C23.579 41.5274 23.5078 41.4378 23.4183 41.3694C23.3288 41.3009 23.2287 41.2535 23.1181 41.2271C23.0074 41.2008 22.8942 41.1876 22.7783 41.1876H21.0164L21.1112 41.0454V43.1076C21.1112 43.1971 21.0848 43.2735 21.0322 43.3367C20.9795 43.3999 20.9084 43.4315 20.8188 43.4315ZM21.0164 40.6188H22.9521C23.1049 40.6082 23.2471 40.5556 23.3788 40.4607C23.5157 40.3659 23.6264 40.2342 23.7106 40.0657C23.8002 39.8919 23.845 39.697 23.845 39.481C23.845 39.2018 23.7554 38.9701 23.5763 38.7857C23.4025 38.6014 23.1813 38.5092 22.9126 38.5092H21.048L21.1112 38.3591V40.761L21.0164 40.6188Z" fill="#718399"/>
<path d="M33.0735 40.6662C33.0735 41.0718 33.0077 41.4484 32.876 41.796C32.7443 42.1384 32.56 42.4386 32.3229 42.6967C32.0859 42.9548 31.8041 43.155 31.4775 43.2972C31.1509 43.4394 30.7954 43.5106 30.4109 43.5106C30.0211 43.5106 29.6629 43.4394 29.3363 43.2972C29.015 43.155 28.7359 42.9548 28.4988 42.6967C28.2618 42.4386 28.0774 42.1384 27.9457 41.796C27.8141 41.4484 27.7482 41.0718 27.7482 40.6662C27.7482 40.2553 27.8141 39.8787 27.9457 39.5363C28.0774 39.1887 28.2618 38.8884 28.4988 38.6356C28.7359 38.3775 29.015 38.1773 29.3363 38.0351C29.6629 37.8929 30.0211 37.8218 30.4109 37.8218C30.7954 37.8218 31.1509 37.8929 31.4775 38.0351C31.8041 38.1773 32.0859 38.3775 32.3229 38.6356C32.56 38.8884 32.7443 39.1887 32.876 39.5363C33.0077 39.8787 33.0735 40.2553 33.0735 40.6662ZM32.3941 40.6662C32.3941 40.2342 32.3071 39.8524 32.1333 39.5205C31.9648 39.1887 31.733 38.9279 31.438 38.7383C31.143 38.5487 30.8007 38.4539 30.4109 38.4539C30.0211 38.4539 29.6761 38.5487 29.3758 38.7383C29.0809 38.9279 28.8491 39.1887 28.6805 39.5205C28.512 39.8524 28.4277 40.2342 28.4277 40.6662C28.4277 41.0928 28.512 41.4747 28.6805 41.8118C28.8491 42.1437 29.0809 42.4044 29.3758 42.594C29.6761 42.7837 30.0211 42.8785 30.4109 42.8785C30.8007 42.8785 31.143 42.7837 31.438 42.594C31.733 42.4044 31.9648 42.1437 32.1333 41.8118C32.3071 41.4747 32.3941 41.0928 32.3941 40.6662Z" fill="#718399"/>
<path d="M38.7834 37.9008C39.1679 37.9008 39.5051 37.9745 39.7948 38.122C40.0897 38.2642 40.3347 38.4644 40.5296 38.7225C40.7245 38.9806 40.8693 39.2782 40.9641 39.6153C41.0642 39.9472 41.1142 40.2974 41.1142 40.6662C41.1142 41.1718 41.0273 41.6354 40.8535 42.0568C40.6797 42.4729 40.4216 42.8074 40.0792 43.0602C39.7368 43.3078 39.3049 43.4315 38.7834 43.4315H36.8082C36.7186 43.4315 36.6422 43.3999 36.579 43.3367C36.5211 43.2735 36.4921 43.1971 36.4921 43.1076V38.2168C36.4921 38.1273 36.5211 38.0535 36.579 37.9956C36.6422 37.9324 36.7186 37.9008 36.8082 37.9008H38.7834ZM38.7044 42.8153C39.11 42.8153 39.4392 42.7178 39.6921 42.5229C39.9502 42.328 40.1371 42.0673 40.253 41.7407C40.3742 41.4141 40.4348 41.056 40.4348 40.6662C40.4348 40.3817 40.4005 40.1105 40.332 39.8524C40.2688 39.589 40.1661 39.3572 40.0239 39.1571C39.8869 38.9569 39.7079 38.7989 39.4866 38.683C39.2707 38.5671 39.0099 38.5092 38.7044 38.5092H37.0847L37.1479 38.446V42.8943L37.1005 42.8153H38.7044Z" fill="#718399"/>
<path d="M48.4526 37.8929C48.5421 37.8929 48.6158 37.9245 48.6738 37.9877C48.7317 38.0509 48.7607 38.1273 48.7607 38.2168V41.3536C48.7607 41.7591 48.6659 42.1226 48.4763 42.4439C48.2919 42.7652 48.0417 43.0207 47.7257 43.2103C47.4096 43.3947 47.0514 43.4868 46.6511 43.4868C46.2455 43.4868 45.8821 43.3947 45.5608 43.2103C45.2447 43.0207 44.9945 42.7652 44.8102 42.4439C44.6258 42.1226 44.5336 41.7591 44.5336 41.3536V38.2168C44.5336 38.1273 44.5626 38.0509 44.6205 37.9877C44.6837 37.9245 44.7654 37.8929 44.8655 37.8929C44.9497 37.8929 45.0235 37.9245 45.0867 37.9877C45.1552 38.0509 45.1894 38.1273 45.1894 38.2168V41.3536C45.1894 41.6433 45.2553 41.9014 45.3869 42.1279C45.5186 42.3544 45.6951 42.5335 45.9163 42.6651C46.1428 42.7916 46.3877 42.8548 46.6511 42.8548C46.9197 42.8548 47.1673 42.7916 47.3938 42.6651C47.6203 42.5335 47.802 42.3544 47.939 42.1279C48.0812 41.9014 48.1523 41.6433 48.1523 41.3536V38.2168C48.1523 38.1273 48.1787 38.0509 48.2313 37.9877C48.284 37.9245 48.3577 37.8929 48.4526 37.8929Z" fill="#718399"/>
<path d="M56.4955 38.2642C56.5851 38.3116 56.6351 38.3828 56.6457 38.4776C56.6615 38.5724 56.6378 38.6593 56.5746 38.7383C56.5271 38.8068 56.4666 38.8437 56.3928 38.8489C56.3191 38.8542 56.2453 38.8384 56.1716 38.8015C55.9978 38.6962 55.8108 38.6145 55.6106 38.5566C55.4105 38.4934 55.1998 38.4618 54.9785 38.4618C54.6678 38.4618 54.3833 38.5171 54.1252 38.6277C53.8671 38.733 53.6433 38.8832 53.4536 39.078C53.264 39.2729 53.1165 39.5047 53.0112 39.7733C52.9058 40.042 52.8531 40.3396 52.8531 40.6662C52.8531 41.0138 52.9085 41.3246 53.0191 41.5985C53.1297 41.8724 53.2798 42.1068 53.4694 42.3017C53.6643 42.4913 53.8882 42.6362 54.141 42.7362C54.3991 42.8363 54.6783 42.8864 54.9785 42.8864C55.1945 42.8864 55.4026 42.8574 55.6027 42.7995C55.8029 42.7415 55.9925 42.6572 56.1716 42.5466C56.2453 42.5098 56.3191 42.4966 56.3928 42.5071C56.4666 42.5177 56.5298 42.5545 56.5825 42.6177C56.6457 42.702 56.6694 42.7916 56.6536 42.8864C56.6378 42.9759 56.5877 43.0418 56.5034 43.0839C56.3718 43.1629 56.2216 43.2366 56.0531 43.3051C55.8845 43.3683 55.7081 43.4184 55.5237 43.4552C55.3446 43.4921 55.1629 43.5106 54.9785 43.5106C54.5993 43.5106 54.2411 43.4447 53.904 43.313C53.5669 43.1813 53.2693 42.9917 53.0112 42.7441C52.7531 42.4966 52.5476 42.199 52.3949 41.8513C52.2474 41.4984 52.1737 41.1034 52.1737 40.6662C52.1737 40.2553 52.2448 39.8787 52.387 39.5363C52.5292 39.1939 52.7267 38.8963 52.9796 38.6435C53.2377 38.3907 53.5353 38.1931 53.8724 38.0509C54.2148 37.9087 54.5835 37.8376 54.9785 37.8376C55.2524 37.8376 55.5184 37.8745 55.7765 37.9482C56.0399 38.0219 56.2796 38.1273 56.4955 38.2642Z" fill="#718399"/>
<path d="M61.6908 43.4315C61.5959 43.4315 61.5169 43.3999 61.4537 43.3367C61.3905 43.2735 61.3589 43.1971 61.3589 43.1076V38.2247H62.0305V43.1076C62.0305 43.1971 61.9989 43.2735 61.9357 43.3367C61.8725 43.3999 61.7908 43.4315 61.6908 43.4315ZM59.8577 38.5013C59.7682 38.5013 59.6918 38.4749 59.6286 38.4223C59.5706 38.3643 59.5417 38.2906 59.5417 38.201C59.5417 38.1115 59.5706 38.0404 59.6286 37.9877C59.6918 37.9298 59.7682 37.9008 59.8577 37.9008H63.5317C63.6212 37.9008 63.6976 37.9298 63.7608 37.9877C63.824 38.0404 63.8556 38.1115 63.8556 38.201C63.8556 38.2958 63.824 38.3696 63.7608 38.4223C63.6976 38.4749 63.6212 38.5013 63.5317 38.5013H59.8577Z" fill="#718399"/>
<path d="M76.7085 40.6662C76.7085 41.0718 76.6426 41.4484 76.5109 41.796C76.3793 42.1384 76.1949 42.4386 75.9579 42.6967C75.7208 42.9548 75.439 43.155 75.1125 43.2972C74.7859 43.4394 74.4303 43.5106 74.0458 43.5106C73.656 43.5106 73.2978 43.4394 72.9713 43.2972C72.65 43.155 72.3708 42.9548 72.1338 42.6967C71.8967 42.4386 71.7124 42.1384 71.5807 41.796C71.449 41.4484 71.3831 41.0718 71.3831 40.6662C71.3831 40.2553 71.449 39.8787 71.5807 39.5363C71.7124 39.1887 71.8967 38.8884 72.1338 38.6356C72.3708 38.3775 72.65 38.1773 72.9713 38.0351C73.2978 37.8929 73.656 37.8218 74.0458 37.8218C74.4303 37.8218 74.7859 37.8929 75.1125 38.0351C75.439 38.1773 75.7208 38.3775 75.9579 38.6356C76.1949 38.8884 76.3793 39.1887 76.5109 39.5363C76.6426 39.8787 76.7085 40.2553 76.7085 40.6662ZM76.029 40.6662C76.029 40.2342 75.9421 39.8524 75.7682 39.5205C75.5997 39.1887 75.3679 38.9279 75.073 38.7383C74.778 38.5487 74.4356 38.4539 74.0458 38.4539C73.656 38.4539 73.311 38.5487 73.0108 38.7383C72.7158 38.9279 72.484 39.1887 72.3155 39.5205C72.1469 39.8524 72.0626 40.2342 72.0626 40.6662C72.0626 41.0928 72.1469 41.4747 72.3155 41.8118C72.484 42.1437 72.7158 42.4044 73.0108 42.594C73.311 42.7837 73.656 42.8785 74.0458 42.8785C74.4356 42.8785 74.778 42.7837 75.073 42.594C75.3679 42.4044 75.5997 42.1437 75.7682 41.8118C75.9421 41.4747 76.029 41.0928 76.029 40.6662Z" fill="#718399"/>
<path d="M80.451 43.4315C80.3562 43.4315 80.2772 43.3999 80.214 43.3367C80.156 43.2735 80.127 43.1971 80.127 43.1076V38.2168C80.127 38.1273 80.156 38.0535 80.214 37.9956C80.2772 37.9324 80.3535 37.9008 80.4431 37.9008H83.2164C83.3059 37.9008 83.3823 37.9298 83.4455 37.9877C83.5087 38.0456 83.5403 38.1194 83.5403 38.2089C83.5403 38.2932 83.5087 38.3643 83.4455 38.4223C83.3823 38.4802 83.3059 38.5092 83.2164 38.5092H80.7275L80.7749 38.446V40.3817L80.7354 40.2948H82.8608C82.9504 40.2948 83.0267 40.3264 83.09 40.3896C83.1532 40.4476 83.1848 40.5213 83.1848 40.6109C83.1848 40.6899 83.1532 40.761 83.09 40.8242C83.0267 40.8821 82.9504 40.9111 82.8608 40.9111H80.7196L80.7749 40.84V43.1076C80.7749 43.1971 80.7433 43.2735 80.6801 43.3367C80.6169 43.3999 80.5405 43.4315 80.451 43.4315Z" fill="#718399"/>
<path d="M95.6038 37.9008C95.7092 37.9008 95.7935 37.9377 95.8567 38.0114C95.9251 38.0799 95.9594 38.1668 95.9594 38.2721V43.0286C95.9594 43.1445 95.9199 43.2419 95.8409 43.3209C95.7671 43.3947 95.6723 43.4315 95.5564 43.4315C95.5038 43.4315 95.4458 43.421 95.3826 43.3999C95.3247 43.3789 95.2799 43.3499 95.2483 43.313L92.0009 39.1018L92.1827 38.999V43.0681C92.1827 43.1682 92.1484 43.2551 92.08 43.3288C92.0115 43.3973 91.9246 43.4315 91.8192 43.4315C91.7086 43.4315 91.6191 43.3973 91.5506 43.3288C91.4874 43.2551 91.4558 43.1682 91.4558 43.0681V38.3037C91.4558 38.1826 91.4953 38.0851 91.5743 38.0114C91.6533 37.9377 91.7481 37.9008 91.8587 37.9008C91.9167 37.9008 91.9772 37.914 92.0405 37.9403C92.1089 37.9614 92.159 37.9956 92.1906 38.043L95.3589 42.1674L95.2404 42.278V38.2721C95.2404 38.1668 95.2746 38.0799 95.3431 38.0114C95.4116 37.9377 95.4985 37.9008 95.6038 37.9008Z" fill="#718399"/>
<path d="M100.024 37.9008H102.757C102.868 37.9008 102.96 37.9377 103.034 38.0114C103.113 38.0851 103.153 38.1773 103.153 38.2879C103.153 38.3986 103.113 38.4881 103.034 38.5566C102.96 38.6251 102.868 38.6593 102.757 38.6593H100.371L100.45 38.525V40.2948L100.379 40.2158H102.402C102.513 40.2158 102.605 40.2527 102.678 40.3264C102.757 40.4002 102.797 40.495 102.797 40.6109C102.797 40.7215 102.757 40.811 102.678 40.8795C102.605 40.948 102.513 40.9822 102.402 40.9822H100.395L100.45 40.9111V42.7362L100.395 42.673H102.757C102.868 42.673 102.96 42.7125 103.034 42.7916C103.113 42.8653 103.153 42.9522 103.153 43.0523C103.153 43.1629 103.113 43.2551 103.034 43.3288C102.96 43.3973 102.868 43.4315 102.757 43.4315H100.024C99.9131 43.4315 99.8183 43.3947 99.7393 43.3209C99.6602 43.2419 99.6207 43.1445 99.6207 43.0286V38.3037C99.6207 38.1879 99.6602 38.093 99.7393 38.0193C99.8183 37.9403 99.9131 37.9008 100.024 37.9008Z" fill="#718399"/>
<path d="M110.21 37.885C110.316 37.885 110.403 37.9245 110.471 38.0035C110.545 38.0772 110.582 38.1589 110.582 38.2484C110.582 38.3327 110.553 38.4144 110.495 38.4934L108.836 40.7136L108.385 40.0894L109.894 38.0746C109.984 37.9482 110.089 37.885 110.21 37.885ZM106.608 37.8771C106.734 37.8771 106.842 37.9324 106.932 38.043L110.495 42.8311C110.553 42.8995 110.582 42.9785 110.582 43.0681C110.582 43.1945 110.537 43.292 110.447 43.3604C110.358 43.4289 110.268 43.4631 110.179 43.4631C110.052 43.4631 109.947 43.4078 109.863 43.2972L106.292 38.5171C106.234 38.4433 106.205 38.3643 106.205 38.28C106.205 38.1642 106.247 38.0693 106.331 37.9956C106.415 37.9166 106.507 37.8771 106.608 37.8771ZM106.552 43.4631C106.452 43.4631 106.368 43.4289 106.299 43.3604C106.231 43.2867 106.197 43.205 106.197 43.1155C106.197 43.026 106.228 42.9364 106.292 42.8469L107.967 40.5793L108.401 41.2192L106.876 43.2814C106.792 43.4026 106.684 43.4631 106.552 43.4631Z" fill="#718399"/>
<path d="M115.723 43.4315C115.596 43.4315 115.494 43.3947 115.415 43.3209C115.341 43.2419 115.304 43.1445 115.304 43.0286V38.2958H116.149V43.0286C116.149 43.1445 116.107 43.2419 116.023 43.3209C115.944 43.3947 115.844 43.4315 115.723 43.4315ZM113.929 38.6593C113.819 38.6593 113.724 38.6251 113.645 38.5566C113.566 38.4828 113.526 38.388 113.526 38.2721C113.526 38.1615 113.566 38.072 113.645 38.0035C113.724 37.935 113.819 37.9008 113.929 37.9008H117.524C117.635 37.9008 117.727 37.9377 117.801 38.0114C117.88 38.0799 117.919 38.1694 117.919 38.28C117.919 38.3959 117.88 38.4881 117.801 38.5566C117.727 38.6251 117.635 38.6593 117.524 38.6593H113.929Z" fill="#718399"/>
<path d="M129.68 38.2168C129.796 38.2748 129.861 38.3643 129.877 38.4855C129.898 38.6066 129.869 38.7172 129.79 38.8173C129.732 38.8963 129.656 38.9411 129.561 38.9516C129.472 38.9622 129.382 38.9437 129.293 38.8963C129.14 38.8173 128.979 38.7541 128.811 38.7067C128.642 38.6593 128.463 38.6356 128.273 38.6356C127.973 38.6356 127.702 38.6856 127.46 38.7857C127.223 38.8805 127.017 39.0201 126.843 39.2045C126.669 39.3836 126.535 39.5969 126.44 39.8445C126.351 40.092 126.306 40.3659 126.306 40.6662C126.306 40.998 126.356 41.293 126.456 41.5511C126.556 41.8039 126.693 42.0199 126.867 42.199C127.046 42.3728 127.254 42.5045 127.491 42.594C127.733 42.6783 127.994 42.7204 128.273 42.7204C128.452 42.7204 128.626 42.6994 128.795 42.6572C128.969 42.6151 129.132 42.5519 129.285 42.4676C129.38 42.4202 129.472 42.4044 129.561 42.4202C129.656 42.4307 129.732 42.4755 129.79 42.5545C129.88 42.6651 129.912 42.7784 129.885 42.8943C129.864 43.0049 129.798 43.0892 129.688 43.1471C129.556 43.2208 129.411 43.2841 129.253 43.3367C129.095 43.3894 128.934 43.4315 128.771 43.4631C128.608 43.4948 128.442 43.5106 128.273 43.5106C127.894 43.5106 127.536 43.4473 127.199 43.3209C126.862 43.1945 126.561 43.0102 126.298 42.7679C126.035 42.5256 125.827 42.2279 125.674 41.875C125.526 41.5221 125.453 41.1192 125.453 40.6662C125.453 40.2606 125.521 39.8866 125.658 39.5442C125.8 39.1966 125.998 38.899 126.251 38.6514C126.509 38.3986 126.809 38.2037 127.151 38.0667C127.494 37.9245 127.868 37.8534 128.273 37.8534C128.526 37.8534 128.771 37.885 129.008 37.9482C129.25 38.0114 129.474 38.1009 129.68 38.2168Z" fill="#718399"/>
<path d="M135.122 38.9279L133.344 43.1945C133.312 43.2788 133.265 43.3446 133.202 43.392C133.138 43.4394 133.067 43.4631 132.988 43.4631C132.872 43.4631 132.785 43.4315 132.728 43.3683C132.67 43.2999 132.638 43.2156 132.633 43.1155C132.633 43.0786 132.641 43.0365 132.656 42.9891L134.663 38.1378C134.7 38.0483 134.753 37.9798 134.821 37.9324C134.895 37.885 134.974 37.8639 135.058 37.8692C135.137 37.8692 135.211 37.8929 135.28 37.9403C135.348 37.9877 135.398 38.0535 135.43 38.1378L137.413 42.918C137.434 42.9706 137.444 43.0233 137.444 43.076C137.444 43.1919 137.405 43.2867 137.326 43.3604C137.252 43.4289 137.168 43.4631 137.073 43.4631C136.994 43.4631 136.92 43.4394 136.852 43.392C136.789 43.3394 136.741 43.2735 136.71 43.1945L134.916 38.9516L135.122 38.9279ZM133.66 42.0726L134.015 41.3141H136.251L136.386 42.0726H133.66Z" fill="#718399"/>
<path d="M142.814 37.9008C143.093 37.9008 143.351 37.9772 143.588 38.1299C143.825 38.2774 144.015 38.4802 144.157 38.7383C144.299 38.9964 144.371 39.2861 144.371 39.6074C144.371 39.9287 144.299 40.2211 144.157 40.4844C144.015 40.7425 143.825 40.9506 143.588 41.1086C143.351 41.2614 143.093 41.3378 142.814 41.3378H141.289L141.352 41.2113V43.0286C141.352 43.1445 141.316 43.2419 141.242 43.3209C141.173 43.3947 141.081 43.4315 140.965 43.4315C140.855 43.4315 140.762 43.3947 140.689 43.3209C140.62 43.2419 140.586 43.1445 140.586 43.0286V38.3037C140.586 38.1879 140.625 38.093 140.704 38.0193C140.783 37.9403 140.878 37.9008 140.989 37.9008H142.814ZM142.814 40.5793C142.951 40.5793 143.075 40.5345 143.185 40.4449C143.301 40.3554 143.393 40.2369 143.462 40.0894C143.536 39.9419 143.573 39.7812 143.573 39.6074C143.573 39.4336 143.536 39.2756 143.462 39.1334C143.393 38.9911 143.301 38.8779 143.185 38.7936C143.075 38.7041 142.951 38.6593 142.814 38.6593H141.273L141.352 38.5408V40.682L141.281 40.5793H142.814Z" fill="#718399"/>
<path d="M148.531 43.0286C148.526 43.1445 148.481 43.2419 148.397 43.3209C148.318 43.3947 148.223 43.4315 148.112 43.4315C147.991 43.4315 147.891 43.3947 147.812 43.3209C147.738 43.2419 147.702 43.1445 147.702 43.0286V38.3037C147.702 38.1879 147.741 38.093 147.82 38.0193C147.899 37.9403 148.002 37.9008 148.128 37.9008C148.234 37.9008 148.326 37.9403 148.405 38.0193C148.489 38.093 148.531 38.1879 148.531 38.3037V43.0286Z" fill="#718399"/>
<path d="M153.98 43.4315C153.853 43.4315 153.751 43.3947 153.672 43.3209C153.598 43.2419 153.561 43.1445 153.561 43.0286V38.2958H154.406V43.0286C154.406 43.1445 154.364 43.2419 154.28 43.3209C154.201 43.3947 154.101 43.4315 153.98 43.4315ZM152.186 38.6593C152.076 38.6593 151.981 38.6251 151.902 38.5566C151.823 38.4828 151.783 38.388 151.783 38.2721C151.783 38.1615 151.823 38.072 151.902 38.0035C151.981 37.935 152.076 37.9008 152.186 37.9008H155.781C155.892 37.9008 155.984 37.9377 156.058 38.0114C156.137 38.0799 156.176 38.1694 156.176 38.28C156.176 38.3959 156.137 38.4881 156.058 38.5566C155.984 38.6251 155.892 38.6593 155.781 38.6593H152.186Z" fill="#718399"/>
<path d="M161.022 38.9279L159.245 43.1945C159.213 43.2788 159.166 43.3446 159.102 43.392C159.039 43.4394 158.968 43.4631 158.889 43.4631C158.773 43.4631 158.686 43.4315 158.628 43.3683C158.57 43.2999 158.539 43.2156 158.533 43.1155C158.533 43.0786 158.541 43.0365 158.557 42.9891L160.564 38.1378C160.601 38.0483 160.654 37.9798 160.722 37.9324C160.796 37.885 160.875 37.8639 160.959 37.8692C161.038 37.8692 161.112 37.8929 161.18 37.9403C161.249 37.9877 161.299 38.0535 161.33 38.1378L163.314 42.918C163.335 42.9706 163.345 43.0233 163.345 43.076C163.345 43.1919 163.306 43.2867 163.227 43.3604C163.153 43.4289 163.069 43.4631 162.974 43.4631C162.895 43.4631 162.821 43.4394 162.753 43.392C162.689 43.3394 162.642 43.2735 162.61 43.1945L160.817 38.9516L161.022 38.9279ZM159.561 42.0726L159.916 41.3141H162.152L162.286 42.0726H159.561Z" fill="#718399"/>
<path d="M169.544 42.6572C169.655 42.6572 169.747 42.6941 169.821 42.7679C169.9 42.8416 169.939 42.9338 169.939 43.0444C169.939 43.155 169.9 43.2472 169.821 43.3209C169.747 43.3947 169.655 43.4315 169.544 43.4315H166.89C166.774 43.4315 166.676 43.3947 166.597 43.3209C166.524 43.2419 166.487 43.1445 166.487 43.0286V38.3037C166.487 38.1879 166.526 38.093 166.605 38.0193C166.684 37.9403 166.787 37.9008 166.913 37.9008C167.019 37.9008 167.111 37.9403 167.19 38.0193C167.274 38.093 167.316 38.1879 167.316 38.3037V42.7916L167.15 42.6572H169.544Z" fill="#718399"/>
<path d="M180.844 42.6572C180.954 42.6572 181.046 42.6941 181.12 42.7679C181.199 42.8416 181.239 42.9338 181.239 43.0444C181.239 43.155 181.199 43.2472 181.12 43.3209C181.046 43.3947 180.954 43.4315 180.844 43.4315H178.189C178.073 43.4315 177.975 43.3947 177.896 43.3209C177.823 43.2419 177.786 43.1445 177.786 43.0286V38.3037C177.786 38.1879 177.825 38.093 177.904 38.0193C177.983 37.9403 178.086 37.9008 178.212 37.9008C178.318 37.9008 178.41 37.9403 178.489 38.0193C178.573 38.093 178.615 38.1879 178.615 38.3037V42.7916L178.45 42.6572H180.844Z" fill="#718399"/>
<path d="M185.345 43.0286C185.34 43.1445 185.295 43.2419 185.211 43.3209C185.132 43.3947 185.037 43.4315 184.927 43.4315C184.805 43.4315 184.705 43.3947 184.626 43.3209C184.553 43.2419 184.516 43.1445 184.516 43.0286V38.3037C184.516 38.1879 184.555 38.093 184.634 38.0193C184.713 37.9403 184.816 37.9008 184.942 37.9008C185.048 37.9008 185.14 37.9403 185.219 38.0193C185.303 38.093 185.345 38.1879 185.345 38.3037V43.0286Z" fill="#718399"/>
<path d="M189.403 37.8929C189.466 37.8929 189.532 37.9087 189.601 37.9403C189.669 37.9719 189.722 38.0167 189.759 38.0746L191.766 41.1323L191.426 41.1165L193.472 38.0746C193.557 37.9535 193.665 37.8929 193.796 37.8929C193.902 37.8929 193.994 37.9324 194.073 38.0114C194.157 38.0851 194.199 38.18 194.199 38.2958V43.0286C194.199 43.1445 194.162 43.2419 194.089 43.3209C194.015 43.3947 193.917 43.4315 193.796 43.4315C193.67 43.4315 193.567 43.3947 193.488 43.3209C193.414 43.2419 193.378 43.1445 193.378 43.0286V39.0227L193.63 39.078L191.892 41.7249C191.855 41.7723 191.808 41.8145 191.75 41.8513C191.692 41.8829 191.631 41.8961 191.568 41.8908C191.51 41.8961 191.45 41.8829 191.386 41.8513C191.328 41.8145 191.281 41.7723 191.244 41.7249L189.569 39.1176L189.759 38.8015V43.0286C189.759 43.1445 189.722 43.2419 189.648 43.3209C189.58 43.3947 189.488 43.4315 189.372 43.4315C189.261 43.4315 189.169 43.3947 189.095 43.3209C189.027 43.2419 188.992 43.1445 188.992 43.0286V38.2958C188.992 38.1852 189.032 38.0904 189.111 38.0114C189.195 37.9324 189.293 37.8929 189.403 37.8929Z" fill="#718399"/>
<path d="M198.689 43.0286C198.684 43.1445 198.639 43.2419 198.555 43.3209C198.476 43.3947 198.381 43.4315 198.27 43.4315C198.149 43.4315 198.049 43.3947 197.97 43.3209C197.896 43.2419 197.86 43.1445 197.86 43.0286V38.3037C197.86 38.1879 197.899 38.093 197.978 38.0193C198.057 37.9403 198.16 37.9008 198.286 37.9008C198.392 37.9008 198.484 37.9403 198.563 38.0193C198.647 38.093 198.689 38.1879 198.689 38.3037V43.0286Z" fill="#718399"/>
<path d="M204.138 43.4315C204.011 43.4315 203.909 43.3947 203.83 43.3209C203.756 43.2419 203.719 43.1445 203.719 43.0286V38.2958H204.564V43.0286C204.564 43.1445 204.522 43.2419 204.438 43.3209C204.359 43.3947 204.259 43.4315 204.138 43.4315ZM202.344 38.6593C202.234 38.6593 202.139 38.6251 202.06 38.5566C201.981 38.4828 201.941 38.388 201.941 38.2721C201.941 38.1615 201.981 38.072 202.06 38.0035C202.139 37.935 202.234 37.9008 202.344 37.9008H205.939C206.05 37.9008 206.142 37.9377 206.216 38.0114C206.295 38.0799 206.334 38.1694 206.334 38.28C206.334 38.3959 206.295 38.4881 206.216 38.5566C206.142 38.6251 206.05 38.6593 205.939 38.6593H202.344Z" fill="#718399"/>
<path d="M210.001 37.9008H212.735C212.846 37.9008 212.938 37.9377 213.012 38.0114C213.091 38.0851 213.13 38.1773 213.13 38.2879C213.13 38.3986 213.091 38.4881 213.012 38.5566C212.938 38.6251 212.846 38.6593 212.735 38.6593H210.349L210.428 38.525V40.2948L210.357 40.2158H212.38C212.49 40.2158 212.582 40.2527 212.656 40.3264C212.735 40.4002 212.775 40.495 212.775 40.6109C212.775 40.7215 212.735 40.811 212.656 40.8795C212.582 40.948 212.49 40.9822 212.38 40.9822H210.373L210.428 40.9111V42.7362L210.373 42.673H212.735C212.846 42.673 212.938 42.7125 213.012 42.7916C213.091 42.8653 213.13 42.9522 213.13 43.0523C213.13 43.1629 213.091 43.2551 213.012 43.3288C212.938 43.3973 212.846 43.4315 212.735 43.4315H210.001C209.891 43.4315 209.796 43.3947 209.717 43.3209C209.638 43.2419 209.598 43.1445 209.598 43.0286V38.3037C209.598 38.1879 209.638 38.093 209.717 38.0193C209.796 37.9403 209.891 37.9008 210.001 37.9008Z" fill="#718399"/>
<path d="M218.813 37.9008C219.198 37.9008 219.538 37.9745 219.833 38.122C220.128 38.2642 220.373 38.4644 220.567 38.7225C220.768 38.9753 220.918 39.2703 221.018 39.6074C221.118 39.9393 221.168 40.2922 221.168 40.6662C221.168 41.1771 221.078 41.6433 220.899 42.0647C220.72 42.4808 220.457 42.8126 220.109 43.0602C219.762 43.3078 219.33 43.4315 218.813 43.4315H216.886C216.775 43.4315 216.68 43.3947 216.601 43.3209C216.522 43.2419 216.483 43.1445 216.483 43.0286V38.3037C216.483 38.1879 216.522 38.093 216.601 38.0193C216.68 37.9403 216.775 37.9008 216.886 37.9008H218.813ZM218.734 42.673C219.108 42.673 219.411 42.5809 219.643 42.3965C219.875 42.2121 220.043 41.9698 220.149 41.6696C220.259 41.3641 220.315 41.0296 220.315 40.6662C220.315 40.3975 220.283 40.1447 220.22 39.9077C220.162 39.6654 220.067 39.452 219.935 39.2677C219.809 39.078 219.646 38.9306 219.446 38.8252C219.251 38.7146 219.014 38.6593 218.734 38.6593H217.241L217.312 38.5882V42.752L217.265 42.673H218.734Z" fill="#718399"/>
<g clip-path="url(#clip0_6_11339)">
<path d="M122.22 7.33553C121.074 6.1891 119.728 5.28483 118.177 4.61966C116.626 3.95448 114.98 3.62036 113.233 3.62036C111.485 3.62036 109.846 3.95448 108.307 4.61966C106.768 5.28483 105.425 6.19217 104.282 7.33553C104.224 7.39378 104.169 7.45508 104.11 7.51639C103.445 8.37468 102.887 9.32187 102.44 10.3641C101.775 11.9121 101.44 13.5612 101.44 15.3054C101.44 17.0526 101.771 18.6987 102.44 20.2497C103.105 21.7977 104.012 23.1465 105.156 24.2898C106.302 25.4363 107.645 26.3405 109.18 27.0088C110.719 27.674 112.362 28.005 114.106 28.005C114.171 28.005 114.235 28.002 114.299 28.002C113.34 26.7329 112.77 25.1573 112.77 23.4469C112.77 23.3764 112.779 23.3089 112.779 23.2384C111.988 23.1894 111.234 23.0239 110.529 22.7204C109.689 22.3618 108.954 21.8652 108.319 21.2337C107.684 20.5992 107.191 19.8635 106.829 19.0236C106.471 18.1837 106.29 17.2825 106.29 16.3231C106.29 15.3636 106.471 14.4624 106.829 13.6225C107.188 12.7826 107.684 12.0469 108.319 11.4124C108.356 11.3756 108.399 11.3419 108.439 11.3051C108.665 10.9833 108.914 10.6798 109.196 10.3978C109.827 9.76634 110.566 9.26362 111.406 8.89272C112.246 8.52182 113.147 8.33483 114.106 8.33483C115.066 8.33483 115.973 8.52182 116.822 8.89272C117.671 9.26362 118.413 9.76634 119.048 10.3978C119.679 11.0323 120.176 11.768 120.537 12.6079C120.841 13.3129 121.009 14.067 121.055 14.8578C121.114 14.8578 121.172 14.8486 121.23 14.8486C123.002 14.8486 124.633 15.4648 125.926 16.4886C125.926 16.4334 125.929 16.3813 125.929 16.3261C125.929 14.582 125.598 12.9328 124.933 11.3848C124.271 9.82764 123.367 8.48197 122.22 7.33553Z" fill="#206FEB"/>
<path d="M120.36 17.8716C118.907 17.8716 117.589 18.4325 116.596 19.3429C116.007 20.2258 115.661 21.2894 115.661 22.4297C115.661 25.5073 118.156 28.0025 121.233 28.0025C122.686 28.0025 124.004 27.4415 124.998 26.5311C125.586 25.6483 125.933 24.5846 125.933 23.4443C125.936 20.3668 123.44 17.8716 120.36 17.8716Z" fill="#206FEB"/>
<path d="M60.9417 3.71021H49.551C48.895 3.71021 48.3156 3.90332 47.816 4.28036C47.6045 4.68498 47.4941 5.13558 47.4941 5.62603V25.005C47.4941 25.8357 47.7792 26.5377 48.3524 27.1109C48.9256 27.6841 49.6153 27.9692 50.4246 27.9692C51.099 27.9692 51.6875 27.7761 52.1902 27.399C52.4048 26.9852 52.5151 26.5254 52.5151 26.0166V18.5402H53.3918V17.5256H59.8627C60.3991 17.5256 60.8681 17.3877 61.2728 17.1149C61.4322 16.7807 61.5149 16.416 61.5149 16.0144C61.5149 15.3186 61.2728 14.7239 60.7915 14.2273C60.3072 13.7338 59.7064 13.4855 58.9891 13.4855H52.5182V9.16955H53.3949V8.15493H61.8215C62.4192 8.15493 62.9434 7.99246 63.397 7.66754C63.581 7.2997 63.676 6.89201 63.676 6.44141C63.676 5.67814 63.4124 5.03136 62.8851 4.50412C62.3518 3.97382 61.705 3.71021 60.9417 3.71021Z" fill="#206FEB"/>
<path d="M69.7023 3.67554C69.0464 3.67554 68.467 3.86865 67.9674 4.24569C67.7559 4.65031 67.6455 5.10091 67.6455 5.59137V24.9704C67.6455 25.8011 67.9306 26.503 68.5038 27.0762C69.077 27.6494 69.7667 27.9345 70.576 27.9345C71.2503 27.9345 71.8389 27.7414 72.3416 27.3644C72.5562 26.9506 72.6665 26.4908 72.6665 25.9819V6.60905C72.6665 5.79981 72.3814 5.11011 71.8082 4.53689C71.2381 3.96368 70.5361 3.67554 69.7023 3.67554Z" fill="#206FEB"/>
<path d="M94.5438 3.71021C93.8878 3.71021 93.3085 3.90332 92.8088 4.28036C92.5973 4.68498 92.487 5.13558 92.487 5.62603V17.3877L91.6103 16.2658V18.4054L80.9951 4.7892C80.7468 4.49799 80.428 4.24357 80.0356 4.03206C79.6433 3.81749 79.1988 3.71327 78.7053 3.71327C78.0493 3.71327 77.4699 3.90639 76.9703 4.28342C76.7588 4.68804 76.6484 5.13865 76.6484 5.6291V25.0081C76.6484 25.8388 76.9335 26.5407 77.5067 27.114C78.0799 27.6872 78.7696 27.9722 79.5789 27.9722C80.2533 27.9722 80.8418 27.7791 81.3445 27.4021C81.5591 26.9883 81.6694 26.5285 81.6694 26.0196V14.2273L82.5461 15.3554V13.2127L93.0939 26.7952C93.3422 27.1078 93.661 27.3837 94.0533 27.6197C94.4457 27.8558 94.9024 27.9722 95.4174 27.9722C96.0918 27.9722 96.6803 27.7791 97.1831 27.4021C97.3976 26.9883 97.508 26.5285 97.508 26.0196V6.64372C97.508 5.83448 97.2198 5.14478 96.6497 4.57156C96.0765 3.99835 95.3745 3.71021 94.5438 3.71021Z" fill="#206FEB"/>
<path d="M168.961 23.5269H161.411V6.6431C161.411 5.83385 161.123 5.14415 160.552 4.57094C159.979 3.99772 159.277 3.71265 158.446 3.71265C157.791 3.71265 157.211 3.90576 156.712 4.2828C156.497 4.68742 156.39 5.13802 156.39 5.63154V25.0442C156.39 25.8535 156.678 26.5432 157.248 27.1164C157.821 27.6896 158.511 27.9747 159.32 27.9747H169.834C170.426 27.9747 170.95 27.803 171.413 27.4689C171.594 27.1041 171.689 26.7026 171.689 26.2612C171.689 25.4979 171.419 24.8511 170.879 24.3239C170.343 23.7905 169.702 23.5269 168.961 23.5269Z" fill="#206FEB"/>
<path d="M189.621 5.46558C189.103 4.25171 188.171 3.64478 186.822 3.64478C186.123 3.64478 185.535 3.82563 185.048 4.17508C184.998 4.26397 184.946 4.35287 184.9 4.44789L175.934 23.7932C175.753 24.1978 175.665 24.5901 175.665 24.9733C175.665 25.5128 175.766 25.9665 175.968 26.3374C176.17 26.7083 176.419 27.0117 176.71 27.2478C177.001 27.4838 177.317 27.6524 177.654 27.7536C177.991 27.8547 178.295 27.9038 178.564 27.9038C179.125 27.9038 179.653 27.7536 180.149 27.4501C180.192 27.4225 180.229 27.3918 180.272 27.3612C180.299 27.306 180.33 27.257 180.354 27.2018L181.568 24.3357H182.013L182.442 23.3211H192.787L193.968 26.1872C194.191 26.7267 194.553 27.1466 195.047 27.4501C195.54 27.7536 196.067 27.9038 196.631 27.9038C197.281 27.9038 197.848 27.7198 198.339 27.3581C198.547 26.9504 198.654 26.4937 198.654 25.9879C198.654 25.5833 198.575 25.1909 198.418 24.8078L189.621 5.46558ZM189.857 19.2841H183.723L186.822 11.9028L187.046 12.4423L187.699 10.8851L190.734 18.2664H189.44L189.857 19.2841Z" fill="#206FEB"/>
<path d="M219.649 17.0653C219.244 16.5381 218.834 16.1212 218.42 15.8177C218.003 15.5143 217.663 15.3058 217.393 15.1955C217.617 15.128 217.877 14.9932 218.168 14.7908C218.331 14.6774 218.49 14.5364 218.644 14.374C218.506 14.2943 218.38 14.2268 218.27 14.1808C218.493 14.1134 218.754 13.9785 219.045 13.7762C219.091 13.7425 219.137 13.7057 219.186 13.6689C219.379 13.3471 219.548 12.97 219.689 12.5348C219.867 11.9738 219.959 11.2994 219.959 10.5116C219.959 9.43265 219.762 8.46707 219.37 7.61185C218.978 6.75969 218.447 6.03934 217.785 5.45386C217.123 4.86838 216.354 4.42085 215.477 4.10512C214.6 3.78939 213.678 3.63306 212.712 3.63306H204.69C204.034 3.63306 203.455 3.82617 202.955 4.20321C202.744 4.60783 202.633 5.05843 202.633 5.55195V24.9647C202.633 25.7739 202.921 26.4636 203.492 27.0368C204.065 27.61 204.755 27.8951 205.564 27.8951H214.091C215.125 27.8951 216.124 27.7143 217.092 27.3556C218.058 26.997 218.901 26.5034 219.621 25.872C219.707 25.7954 219.787 25.7126 219.87 25.6329C220.093 25.3172 220.302 24.9861 220.48 24.6305C220.918 23.7538 221.136 22.7883 221.136 21.7307C221.136 20.6977 220.988 19.7934 220.697 19.0179C220.403 18.2455 220.054 17.5925 219.649 17.0653ZM207.651 9.0924H208.528V8.07778H212.942C213.527 8.07778 214.03 8.29235 214.459 8.71843C214.885 9.14451 215.1 9.65029 215.1 10.2358C215.1 10.8212 214.885 11.327 214.459 11.7531C214.334 11.8788 214.202 11.983 214.064 12.0719C213.957 12.3233 213.797 12.5562 213.586 12.7677C213.16 13.1938 212.654 13.4084 212.068 13.4084H207.654V9.0924H207.651ZM215.284 21.6786C215.164 21.7982 215.036 21.9055 214.904 21.9944C214.784 22.2457 214.622 22.4787 214.407 22.6932C213.923 23.1776 213.347 23.4197 212.672 23.4197H207.651V18.4631H208.528V17.4485H213.549C214.223 17.4485 214.8 17.6906 215.284 18.1719C215.765 18.6562 216.007 19.2448 216.007 19.9406C216.01 20.615 215.768 21.1943 215.284 21.6786Z" fill="#206FEB"/>
<path d="M15.6269 17.8535H5.57268C4.11971 17.8535 2.80162 18.4145 1.80846 19.3249C1.21992 20.2077 0.873535 21.2714 0.873535 22.4117C0.873535 25.4892 3.36871 27.9844 6.44629 27.9844H16.4975C17.9505 27.9844 19.2685 27.4235 20.2617 26.5131C20.8503 25.6302 21.1966 24.5666 21.1966 23.4263C21.1997 20.3487 18.7045 17.8535 15.6269 17.8535Z" fill="#206FEB"/>
<path d="M29.8834 3.64844H5.62444C4.17147 3.64844 2.85338 4.20939 1.86022 5.11979C1.27167 6.00261 0.925293 7.06627 0.925293 8.20658C0.925293 11.2842 3.42047 13.7793 6.49805 13.7793H30.757C32.21 13.7793 33.5281 13.2184 34.5213 12.308C35.1098 11.4252 35.4562 10.3615 35.4562 9.2212C35.4562 6.14361 32.961 3.64844 29.8834 3.64844Z" fill="#206FEB"/>
<path d="M29.832 17.8535C28.379 17.8535 27.0609 18.4145 26.0677 19.3249C25.4792 20.2077 25.1328 21.2714 25.1328 22.4117C25.1328 25.4892 27.628 27.9844 30.7056 27.9844C32.1585 27.9844 33.4766 27.4235 34.4698 26.5131C35.0583 25.6302 35.4047 24.5666 35.4047 23.4263C35.4078 20.3487 32.9095 17.8535 29.832 17.8535Z" fill="#206FEB"/>
<path d="M142.654 5.43848C142.136 4.22461 141.204 3.61768 139.856 3.61768C139.157 3.61768 138.568 3.79853 138.081 4.14798C138.032 4.23687 137.98 4.32577 137.934 4.42079L128.968 23.7661C128.787 24.1707 128.698 24.563 128.698 24.9462C128.698 25.4857 128.799 25.9394 129.001 26.3103C129.204 26.6812 129.452 26.9847 129.743 27.2207C130.034 27.4567 130.35 27.6253 130.687 27.7265C131.024 27.8276 131.328 27.8767 131.598 27.8767C132.159 27.8767 132.686 27.7265 133.182 27.423C133.225 27.3954 133.262 27.3648 133.305 27.3341C133.333 27.2789 133.363 27.2299 133.388 27.1747L134.602 24.3086H135.046L135.475 23.294H145.821L147.001 26.1601C147.225 26.6996 147.586 27.1195 148.08 27.423C148.573 27.7265 149.101 27.8767 149.665 27.8767C150.314 27.8767 150.882 27.6927 151.372 27.331C151.58 26.9233 151.688 26.4666 151.688 25.9608C151.688 25.5562 151.608 25.1638 151.452 24.7807L142.654 5.43848ZM142.89 19.257H136.756L139.856 11.8757L140.079 12.4152L140.732 10.858L143.767 18.2393H142.473L142.89 19.257Z" fill="#206FEB"/>
<path d="M114.113 28.0052C112.366 28.0052 110.726 27.6711 109.187 27.009C107.648 26.3438 106.306 25.4365 105.162 24.2901C104.016 23.1467 103.111 21.7979 102.446 20.25C101.781 18.6989 101.447 17.0528 101.447 15.3056C101.447 13.5614 101.778 11.9123 102.446 10.3643C102.894 9.32208 103.452 8.37489 104.114 7.5166C103.05 8.62318 102.201 9.91062 101.57 11.3789C100.904 12.9269 100.57 14.576 100.57 16.3202C100.57 18.0674 100.901 19.7135 101.57 21.2646C102.235 22.8126 103.142 24.1613 104.285 25.3047C105.432 26.4511 106.775 27.3554 108.31 28.0236C109.849 28.6888 111.492 29.0199 113.236 29.0199C113.865 29.0199 114.475 28.9616 115.075 28.8758C114.796 28.603 114.539 28.3118 114.306 27.9991C114.239 28.0022 114.177 28.0052 114.113 28.0052Z" fill="#FE00FF"/>
<path d="M121.236 14.8432C121.178 14.8432 121.12 14.8493 121.062 14.8524C121.013 14.0615 120.847 13.3105 120.544 12.6024C120.185 11.7625 119.688 11.0268 119.054 10.3923C118.419 9.76085 117.678 9.25814 116.828 8.88723C115.976 8.51633 115.072 8.32935 114.113 8.32935C113.153 8.32935 112.252 8.51633 111.412 8.88723C110.572 9.25814 109.836 9.76085 109.202 10.3923C108.92 10.6743 108.672 10.9778 108.445 11.2996C109.052 10.7203 109.745 10.2513 110.535 9.90186C111.375 9.53095 112.276 9.34397 113.236 9.34397C114.195 9.34397 115.103 9.53095 115.952 9.90186C116.801 10.2728 117.543 10.7755 118.177 11.4069C118.809 12.0415 119.305 12.7771 119.667 13.617C119.97 14.3221 120.139 15.0761 120.185 15.867C120.243 15.867 120.302 15.8578 120.36 15.8578C122.487 15.8578 124.412 16.7406 125.788 18.1568C125.868 17.6081 125.92 17.0502 125.929 16.48C124.639 15.4593 123.008 14.8432 121.236 14.8432Z" fill="#FE00FF"/>
<path d="M121.237 28.0057C118.159 28.0057 115.664 25.5106 115.664 22.433C115.664 21.2896 116.01 20.229 116.599 19.3462C115.489 20.3639 114.787 21.823 114.787 23.4507C114.787 26.5282 117.282 29.0234 120.36 29.0234C122.297 29.0234 124.001 28.0364 125.001 26.5374C124.008 27.4448 122.69 28.0057 121.237 28.0057Z" fill="#FE00FF"/>
<path d="M50.4247 27.9717C49.6154 27.9717 48.9257 27.6835 48.3525 27.1134C47.7793 26.5402 47.4942 25.8382 47.4942 25.0075V5.62546C47.4942 5.13195 47.6015 4.68441 47.8161 4.27979C47.6996 4.36868 47.5862 4.46064 47.4789 4.56793C46.9057 5.14114 46.6206 5.83084 46.6206 6.64009V26.0191C46.6206 26.8498 46.9057 27.5517 47.4789 28.125C48.0521 28.6982 48.7418 28.9832 49.5511 28.9832C50.3818 28.9832 51.0837 28.6951 51.6569 28.125C51.8776 27.9042 52.0554 27.6621 52.1934 27.4015C51.6876 27.7786 51.099 27.9717 50.4247 27.9717Z" fill="#FE00FF"/>
<path d="M61.8187 8.15438H53.3921V9.169H60.942C61.7053 9.169 62.352 8.90538 62.8793 8.37815C63.0969 8.16051 63.2655 7.92448 63.3942 7.66699C62.9406 7.98885 62.4164 8.15438 61.8187 8.15438Z" fill="#FE00FF"/>
<path d="M59.863 17.5221H53.3921V18.5367H58.9863C59.7067 18.5367 60.3044 18.2884 60.7887 17.7949C60.9941 17.5865 61.1535 17.3566 61.27 17.1113C60.8684 17.3872 60.3964 17.5221 59.863 17.5221Z" fill="#FE00FF"/>
<path d="M70.579 27.938C69.7697 27.938 69.08 27.6498 68.5068 27.0797C67.9336 26.5065 67.6485 25.8045 67.6485 24.9738V5.59177C67.6485 5.09825 67.7558 4.65072 67.9704 4.24609C67.8539 4.33499 67.7405 4.42695 67.6332 4.53423C67.06 5.10745 66.7749 5.79715 66.7749 6.60639V25.9854C66.7749 26.8161 67.06 27.518 67.6332 28.0913C68.2064 28.6645 68.8961 28.9495 69.7054 28.9495C70.5361 28.9495 71.238 28.6614 71.8112 28.0913C72.0319 27.8706 72.2097 27.6284 72.3477 27.3678C71.8419 27.7449 71.2533 27.938 70.579 27.938Z" fill="#FE00FF"/>
<path d="M92.4869 17.3871V5.62546C92.4869 5.13195 92.5942 4.68441 92.8088 4.27979C92.6923 4.36868 92.5789 4.46064 92.4716 4.56793C91.8984 5.14114 91.6133 5.83084 91.6133 6.64008V16.2652L92.4869 17.3871Z" fill="#FE00FF"/>
<path d="M95.4177 27.9717C94.8996 27.9717 94.446 27.8552 94.0536 27.6192C93.6612 27.3832 93.3394 27.1073 93.0942 26.7946L82.5464 13.2122V15.3548L92.2205 27.8092C92.4688 28.1219 92.7876 28.3978 93.18 28.6338C93.5724 28.8698 94.0291 28.9863 94.5441 28.9863C95.3748 28.9863 96.0767 28.6982 96.6499 28.128C96.8706 27.9073 97.0484 27.6652 97.1864 27.4046C96.6806 27.7786 96.0921 27.9717 95.4177 27.9717Z" fill="#FE00FF"/>
<path d="M79.579 27.9717C78.7697 27.9717 78.08 27.6835 77.5068 27.1134C76.9336 26.5402 76.6485 25.8382 76.6485 25.0075V5.62546C76.6485 5.13195 76.7558 4.68441 76.9704 4.27979C76.8539 4.36868 76.7405 4.46064 76.6332 4.56793C76.06 5.14114 75.7749 5.83084 75.7749 6.64009V26.0191C75.7749 26.8498 76.06 27.5517 76.6332 28.125C77.2064 28.6982 77.8961 28.9832 78.7054 28.9832C79.5361 28.9832 80.238 28.6951 80.8112 28.125C81.0319 27.9042 81.2097 27.6621 81.3477 27.4015C80.8388 27.7786 80.2533 27.9717 79.579 27.9717Z" fill="#FE00FF"/>
<path d="M169.834 27.9721H159.32C158.511 27.9721 157.821 27.6839 157.248 27.1138C156.675 26.5406 156.39 25.8509 156.39 25.0416V5.62584C156.39 5.13233 156.497 4.68479 156.712 4.2771C156.595 4.36599 156.482 4.45795 156.374 4.56831C155.801 5.14152 155.516 5.83122 155.516 6.64047V26.0532C155.516 26.8624 155.804 27.5521 156.374 28.1253C156.948 28.6985 157.637 28.9836 158.447 28.9836H168.961C169.702 28.9836 170.343 28.72 170.883 28.1928C171.109 27.9721 171.284 27.7268 171.416 27.4632C170.953 27.8004 170.426 27.9721 169.834 27.9721Z" fill="#FE00FF"/>
<path d="M187.699 10.8884L187.046 12.4425L189.44 18.2697H190.733L187.699 10.8884Z" fill="#FE00FF"/>
<path d="M196.632 27.9066C196.071 27.9066 195.544 27.7564 195.047 27.453C194.553 27.1495 194.192 26.7295 193.968 26.1901L192.788 23.324H182.442L182.013 24.3386H191.914L193.094 27.2047C193.318 27.7442 193.68 28.1641 194.173 28.4676C194.667 28.7711 195.194 28.9213 195.758 28.9213C196.567 28.9213 197.251 28.6392 197.815 28.0783C198.033 27.8607 198.21 27.6185 198.342 27.3579C197.849 27.7227 197.278 27.9066 196.632 27.9066Z" fill="#FE00FF"/>
<path d="M180.149 27.4532C179.656 27.7567 179.125 27.9069 178.564 27.9069C178.295 27.9069 177.991 27.8579 177.654 27.7567C177.317 27.6555 177.001 27.4869 176.71 27.2509C176.419 27.0149 176.17 26.7114 175.968 26.3405C175.766 25.9696 175.665 25.5129 175.665 24.9764C175.665 24.5933 175.754 24.2009 175.934 23.7963L184.9 4.45104C184.946 4.35295 184.999 4.26712 185.048 4.17822C184.628 4.47862 184.284 4.9047 184.024 5.46872L175.061 24.8109C174.88 25.2155 174.791 25.6079 174.791 25.9911C174.791 26.5306 174.892 26.9842 175.094 27.3551C175.297 27.726 175.545 28.0295 175.836 28.2655C176.128 28.5016 176.443 28.6702 176.78 28.7713C177.118 28.8725 177.421 28.9215 177.691 28.9215C178.252 28.9215 178.779 28.7713 179.276 28.4679C179.717 28.195 180.045 27.8241 180.272 27.3643C180.229 27.3919 180.192 27.4256 180.149 27.4532Z" fill="#FE00FF"/>
<path d="M215.284 21.6753C215.765 21.1941 216.007 20.6147 216.007 19.9404C216.007 19.2445 215.765 18.656 215.284 18.1717C214.799 17.6904 214.223 17.4482 213.549 17.4482H208.528V18.4629H212.675C213.35 18.4629 213.926 18.705 214.41 19.1863C214.891 19.6706 215.134 20.2591 215.134 20.955C215.134 21.332 215.057 21.6753 214.907 21.9911C215.039 21.9022 215.164 21.7979 215.284 21.6753Z" fill="#FE00FF"/>
<path d="M214.459 11.7525C214.885 11.3264 215.1 10.8206 215.1 10.2351C215.1 9.65273 214.885 9.14695 214.459 8.7178C214.033 8.29172 213.527 8.07715 212.942 8.07715H208.528V9.09177H212.068C212.654 9.09177 213.156 9.30634 213.586 9.73242C214.012 10.1585 214.226 10.6643 214.226 11.2498C214.226 11.544 214.171 11.8168 214.064 12.0682C214.202 11.9824 214.334 11.8751 214.459 11.7525Z" fill="#FE00FF"/>
<path d="M219.183 13.6648C219.137 13.7016 219.091 13.7384 219.042 13.7721C218.75 13.9744 218.493 14.1093 218.266 14.1767C218.376 14.2227 218.505 14.2901 218.64 14.3698C218.766 14.238 218.885 14.0939 219.005 13.9284C219.069 13.8456 219.124 13.7568 219.183 13.6648Z" fill="#FE00FF"/>
<path d="M219.615 25.8714C218.895 26.4998 218.052 26.9964 217.086 27.355C216.117 27.7137 215.118 27.8945 214.085 27.8945H205.56C204.751 27.8945 204.061 27.6064 203.488 27.0362C202.915 26.463 202.63 25.7733 202.63 24.9641V5.55138C202.63 5.05786 202.737 4.61032 202.952 4.20264C202.835 4.29153 202.722 4.38349 202.615 4.49384C202.041 5.06706 201.756 5.75676 201.756 6.566V25.9787C201.756 26.788 202.044 27.4776 202.615 28.0509C203.188 28.6241 203.878 28.9092 204.687 28.9092H213.215C214.248 28.9092 215.247 28.7283 216.215 28.3697C217.181 28.011 218.024 27.5175 218.744 26.886C219.17 26.5121 219.541 26.0921 219.869 25.6293C219.78 25.712 219.704 25.7948 219.615 25.8714Z" fill="#FE00FF"/>
<path d="M16.5037 27.9871H6.44944C3.37186 27.9871 0.876683 25.4888 0.876683 22.4112C0.876683 21.2679 1.22306 20.2073 1.81161 19.3245C0.698894 20.3422 0 21.8012 0 23.4259C0 26.5065 2.49517 29.0017 5.57276 29.0017H15.624C17.5612 29.0017 19.2656 28.0147 20.2649 26.5157C19.2748 27.4261 17.9567 27.9871 16.5037 27.9871Z" fill="#FE00FF"/>
<path d="M30.7576 13.7789H6.50169C3.4241 13.7789 0.928929 11.2838 0.928929 8.20617C0.928929 7.0628 1.27531 6.0022 1.86385 5.11938C0.754205 6.13707 0.0522461 7.59617 0.0522461 9.22385C0.0522461 12.3014 2.54742 14.7966 5.62501 14.7966H29.884C31.8213 14.7966 33.5256 13.8096 34.5249 12.3106C33.5317 13.218 32.2106 13.7789 30.7576 13.7789Z" fill="#FE00FF"/>
<path d="M30.7087 27.9865C27.6311 27.9865 25.136 25.4913 25.136 22.4137C25.136 21.2703 25.4823 20.2097 26.0709 19.3269C24.9612 20.3446 24.2593 21.8037 24.2593 23.4314C24.2593 26.509 26.7545 29.0041 29.832 29.0041C31.7693 29.0041 33.4736 28.0171 34.4729 26.5182C33.4798 27.4255 32.1617 27.9865 30.7087 27.9865Z" fill="#FE00FF"/>
<path d="M140.732 10.8613L140.079 12.4185L142.473 18.2426H143.767L140.732 10.8613Z" fill="#FE00FF"/>
<path d="M149.664 27.8795C149.103 27.8795 148.576 27.7293 148.08 27.4259C147.586 27.1224 147.224 26.7025 147.001 26.163L145.821 23.2969H135.475L135.046 24.3115H144.947L146.127 27.1776C146.351 27.7171 146.713 28.137 147.206 28.4405C147.7 28.744 148.227 28.8942 148.791 28.8942C149.6 28.8942 150.284 28.6121 150.848 28.0512C151.065 27.8336 151.243 27.5914 151.375 27.3308C150.881 27.6956 150.314 27.8795 149.664 27.8795Z" fill="#FE00FF"/>
<path d="M133.182 27.4261C132.689 27.7296 132.158 27.8798 131.597 27.8798C131.328 27.8798 131.024 27.8308 130.687 27.7296C130.35 27.6284 130.034 27.4599 129.743 27.2238C129.452 26.9878 129.203 26.6843 129.001 26.3134C128.799 25.9425 128.697 25.4858 128.697 24.9494C128.697 24.5662 128.786 24.1738 128.967 23.7692L137.933 4.42394C137.979 4.32585 138.031 4.24002 138.08 4.15112C137.66 4.45152 137.317 4.8776 137.057 5.44162L128.091 24.7869C127.91 25.1915 127.821 25.5839 127.821 25.967C127.821 26.5065 127.922 26.9602 128.124 27.3311C128.327 27.702 128.575 28.0055 128.866 28.2415C129.157 28.4775 129.473 28.6461 129.81 28.7473C130.147 28.8484 130.451 28.8975 130.721 28.8975C131.282 28.8975 131.809 28.7473 132.305 28.4438C132.747 28.171 133.075 27.8001 133.302 27.3403C133.262 27.3679 133.225 27.3985 133.182 27.4261Z" fill="#FE00FF"/>
<path d="M125.807 10.3677C125.142 8.81972 124.234 7.47098 123.091 6.32455C121.945 5.17812 120.599 4.27385 119.048 3.60867C117.497 2.9435 115.851 2.60938 114.104 2.60938C112.356 2.60938 110.716 2.9435 109.178 3.60867C107.639 4.27385 106.296 5.18118 105.153 6.32455C104.776 6.70158 104.429 7.10008 104.104 7.52003C104.163 7.45872 104.218 7.39741 104.276 7.33917C105.423 6.19274 106.765 5.28847 108.301 4.62329C109.84 3.95812 111.483 3.624 113.227 3.624C114.971 3.624 116.62 3.95812 118.171 4.62329C119.719 5.28847 121.068 6.19581 122.214 7.33917C123.361 8.4856 124.265 9.83128 124.93 11.3823C125.595 12.9303 125.927 14.5795 125.927 16.3236C125.927 16.3788 125.923 16.4309 125.923 16.4861C126.181 16.6915 126.429 16.9122 126.659 17.1482C126.745 16.5474 126.803 15.9374 126.803 15.309C126.803 13.5648 126.472 11.9157 125.807 10.3677Z" fill="#00FFE0"/>
<path d="M113.656 22.2278C112.865 22.1787 112.111 22.0132 111.406 21.7097C110.566 21.3511 109.83 20.8545 109.196 20.223C108.561 19.5885 108.068 18.8528 107.706 18.0129C107.348 17.173 107.167 16.2718 107.167 15.3124C107.167 14.3529 107.348 13.4517 107.706 12.6118C107.905 12.1459 108.154 11.7137 108.439 11.3091C108.399 11.3459 108.359 11.3796 108.319 11.4164C107.685 12.0509 107.191 12.7866 106.83 13.6265C106.471 14.4664 106.29 15.3676 106.29 16.327C106.29 17.2865 106.471 18.1877 106.83 19.0276C107.188 19.8675 107.685 20.6031 108.319 21.2377C108.951 21.8691 109.689 22.3657 110.529 22.7244C111.237 23.0278 111.988 23.1964 112.779 23.2424C112.776 23.3129 112.77 23.3803 112.77 23.4508C112.77 25.1613 113.34 26.7369 114.3 28.0059C114.858 27.9967 115.406 27.9415 115.946 27.8649C114.53 26.4855 113.647 24.5635 113.647 22.4362C113.644 22.3657 113.653 22.2983 113.656 22.2278Z" fill="#00FFE0"/>
<path d="M121.23 16.8606C119.293 16.8606 117.589 17.8476 116.589 19.3466C117.583 18.4362 118.901 17.8752 120.354 17.8752C123.431 17.8752 125.926 20.3704 125.926 23.448C125.926 24.5913 125.58 25.6519 124.991 26.5348C126.101 25.5171 126.803 24.058 126.803 22.4303C126.803 19.3588 124.308 16.8606 121.23 16.8606Z" fill="#00FFE0"/>
<path d="M59.8564 12.4738H53.3855V9.17554H52.5088V13.4884H58.9797C59.7 13.4884 60.2978 13.7367 60.7821 14.2303C61.2634 14.7238 61.5055 15.3184 61.5055 16.0173C61.5055 16.4189 61.4228 16.7837 61.2634 17.1178C61.4013 17.0228 61.5331 16.9155 61.6588 16.7867C62.14 16.2932 62.3822 15.6985 62.3822 14.9997C62.3822 14.3008 62.14 13.7092 61.6588 13.2126C61.1745 12.7191 60.5737 12.4738 59.8564 12.4738Z" fill="#00FFE0"/>
<path d="M52.509 18.5439V26.0264C52.509 26.5352 52.4017 26.995 52.1841 27.4089C52.3006 27.32 52.417 27.228 52.5243 27.1177C53.0975 26.5444 53.3826 25.8425 53.3826 25.0118V18.5439H52.509Z" fill="#00FFE0"/>
<path d="M63.7492 3.49276C63.222 2.96552 62.5752 2.7019 61.812 2.7019H50.4212C49.612 2.7019 48.9223 2.99004 48.3491 3.5602C48.1253 3.78396 47.9475 4.02612 47.8096 4.28668C48.3123 3.90964 48.8886 3.71653 49.5445 3.71653H60.9353C61.6985 3.71653 62.3453 3.98014 62.8726 4.50738C63.3998 5.03462 63.6634 5.6814 63.6634 6.44467C63.6634 6.89527 63.5684 7.30296 63.3845 7.6708C63.5102 7.5819 63.6328 7.48075 63.7462 7.36733C64.2734 6.84009 64.537 6.19331 64.537 5.43004C64.5401 4.66678 64.2765 4.01999 63.7492 3.49276Z" fill="#00FFE0"/>
<path d="M72.679 3.52553C72.1057 2.95231 71.4038 2.66724 70.5731 2.66724C69.7638 2.66724 69.0741 2.95538 68.5009 3.52553C68.2772 3.7493 68.0994 3.99146 67.9614 4.25201C68.4641 3.87497 69.0404 3.68186 69.6964 3.68186C70.5271 3.68186 71.2291 3.97 71.8023 4.54015C72.3755 5.11337 72.6606 5.80306 72.6606 6.61231V25.9913C72.6606 26.5001 72.5533 26.9599 72.3356 27.3738C72.4521 27.2849 72.5686 27.1929 72.6759 27.0825C73.2491 26.5093 73.5342 25.8074 73.5342 24.9767V5.59769C73.5403 4.78844 73.2522 4.09568 72.679 3.52553Z" fill="#00FFE0"/>
<path d="M78.6959 3.71346C79.1894 3.71346 79.6339 3.82075 80.0263 4.03226C80.4186 4.24683 80.7405 4.49818 80.9857 4.78939L91.6009 18.4056V16.266L81.8624 3.77783C81.6141 3.48663 81.2953 3.23221 80.9029 3.0207C80.5106 2.80613 80.0661 2.7019 79.5726 2.7019C78.7633 2.7019 78.0736 2.99004 77.5004 3.5602C77.2767 3.78396 77.0989 4.02612 76.9609 4.28668C77.4606 3.90658 78.0399 3.71346 78.6959 3.71346Z" fill="#00FFE0"/>
<path d="M97.5168 3.5602C96.9436 2.98698 96.2417 2.7019 95.411 2.7019C94.6017 2.7019 93.912 2.99004 93.3388 3.5602C93.115 3.78396 92.9373 4.02612 92.7993 4.28668C93.302 3.90964 93.8783 3.71653 94.5343 3.71653C95.365 3.71653 96.0669 4.00467 96.6402 4.57482C97.2134 5.14803 97.4985 5.83773 97.4985 6.64698V26.026C97.4985 26.5348 97.3912 26.9946 97.1735 27.4084C97.29 27.3195 97.4065 27.2245 97.5138 27.1172C98.087 26.544 98.3721 25.842 98.3721 25.0113V5.63235C98.3782 4.82311 98.0901 4.13341 97.5168 3.5602Z" fill="#00FFE0"/>
<path d="M81.6599 14.2305V26.0258C81.6599 26.5347 81.5526 26.9945 81.335 27.4083C81.4514 27.3194 81.5679 27.2274 81.6752 27.1171C82.2484 26.5439 82.5335 25.8419 82.5335 25.0112V15.3585L81.6599 14.2305Z" fill="#00FFE0"/>
<path d="M171.75 23.3101C171.211 22.7829 170.57 22.5192 169.828 22.5192H162.278V5.63236C162.278 4.82311 161.99 4.13341 161.42 3.5602C160.847 2.98698 160.145 2.7019 159.314 2.7019C158.505 2.7019 157.815 2.99004 157.242 3.5602C157.018 3.78396 156.841 4.02612 156.703 4.28668C157.202 3.90964 157.782 3.71653 158.438 3.71653C159.268 3.71653 159.97 4.00467 160.543 4.57482C161.117 5.14803 161.402 5.83773 161.402 6.64698V23.5308H168.952C169.694 23.5308 170.334 23.7944 170.874 24.3216C171.413 24.8489 171.683 25.4957 171.683 26.2589C171.683 26.7034 171.588 27.105 171.407 27.4667C171.524 27.3808 171.64 27.2889 171.75 27.1816C172.29 26.6544 172.56 26.0076 172.56 25.2443C172.56 24.481 172.29 23.8373 171.75 23.3101Z" fill="#00FFE0"/>
<path d="M199.286 23.7999L190.489 4.45459C189.971 3.24072 189.039 2.63379 187.69 2.63379C186.492 2.63379 185.612 3.15183 185.039 4.17871C185.526 3.82927 186.114 3.64841 186.813 3.64841C188.162 3.64841 189.094 4.25535 189.612 5.46921L198.41 24.8145C198.566 25.1976 198.646 25.59 198.646 25.9946C198.646 26.5004 198.538 26.9571 198.33 27.3648C198.449 27.2759 198.566 27.1778 198.679 27.0675C199.24 26.5065 199.522 25.8107 199.522 24.98C199.522 24.5754 199.443 24.183 199.286 23.7999Z" fill="#00FFE0"/>
<path d="M186.816 11.9094L183.717 19.2877H189.851L189.434 18.273H184.591L187.037 12.4489L186.816 11.9094Z" fill="#00FFE0"/>
<path d="M181.559 24.345L180.345 27.211C180.321 27.2662 180.29 27.3183 180.263 27.3704C180.692 27.0762 181.014 26.6869 181.219 26.1934L182.004 24.345H181.559Z" fill="#00FFE0"/>
<path d="M152.319 23.7754L143.521 4.43018C143.006 3.21631 142.074 2.60938 140.726 2.60938C139.527 2.60938 138.647 3.12741 138.074 4.1543C138.562 3.80485 139.15 3.624 139.849 3.624C141.198 3.624 142.13 4.23093 142.648 5.4448L151.445 24.7901C151.601 25.1732 151.681 25.5656 151.681 25.9702C151.681 26.476 151.574 26.9327 151.365 27.3404C151.485 27.2515 151.601 27.1534 151.715 27.0431C152.276 26.4821 152.558 25.7863 152.558 24.9556C152.555 24.551 152.475 24.1555 152.319 23.7754Z" fill="#00FFE0"/>
<path d="M139.849 11.8826L136.75 19.2639H142.884L142.467 18.2492H137.627L140.073 12.4221L139.849 11.8826Z" fill="#00FFE0"/>
<path d="M134.592 24.3181L133.378 27.1842C133.354 27.2394 133.323 27.2915 133.295 27.3436C133.725 27.0493 134.046 26.66 134.252 26.1665L135.037 24.3181H134.592Z" fill="#00FFE0"/>
<path d="M207.645 9.09839V13.4113H212.059C212.644 13.4113 213.147 13.1967 213.576 12.7706C213.787 12.5591 213.95 12.3262 214.054 12.0748C213.72 12.2894 213.346 12.3967 212.935 12.3967H208.521V9.09839H207.645Z" fill="#00FFE0"/>
<path d="M204.677 3.63938H212.699C213.665 3.63938 214.588 3.79571 215.464 4.11144C216.341 4.42717 217.11 4.8747 217.773 5.46018C218.435 6.04566 218.962 6.76295 219.357 7.61817C219.75 8.4734 219.946 9.43897 219.946 10.518C219.946 11.3058 219.857 11.9771 219.676 12.5411C219.535 12.9794 219.37 13.3565 219.173 13.6753C219.416 13.4821 219.652 13.2338 219.875 12.9242C220.145 12.5533 220.369 12.0874 220.55 11.5265C220.728 10.9655 220.82 10.2911 220.82 9.50335C220.82 8.42435 220.623 7.45877 220.231 6.60355C219.839 5.75139 219.308 5.03104 218.646 4.44556C217.984 3.86008 217.215 3.41254 216.338 3.09682C215.461 2.78109 214.539 2.62476 213.573 2.62476H205.551C204.742 2.62476 204.052 2.9129 203.479 3.48305C203.255 3.70682 203.077 3.94898 202.939 4.20953C203.445 3.82943 204.022 3.63938 204.677 3.63938Z" fill="#00FFE0"/>
<path d="M207.645 23.4234H212.666C213.34 23.4234 213.916 23.1813 214.401 22.6969C214.615 22.4824 214.778 22.2494 214.897 21.9981C214.499 22.2709 214.048 22.4057 213.539 22.4057H208.518V18.4668H207.642V23.4234H207.645Z" fill="#00FFE0"/>
<path d="M221.564 18.0096C221.273 17.2341 220.924 16.5842 220.519 16.0539C220.114 15.5267 219.704 15.1098 219.29 14.8063C219.048 14.6286 218.83 14.4875 218.637 14.3772C218.481 14.5427 218.324 14.6837 218.162 14.7941C217.871 14.9964 217.613 15.1313 217.386 15.1987C217.656 15.3121 217.996 15.5175 218.413 15.821C218.83 16.1244 219.241 16.5413 219.642 17.0686C220.047 17.5958 220.393 18.2487 220.688 19.0242C220.979 19.7998 221.126 20.704 221.126 21.737C221.126 22.7946 220.908 23.7602 220.47 24.6368C220.292 24.9924 220.084 25.3235 219.86 25.6392C220.461 25.0599 220.96 24.3916 221.347 23.6222C221.785 22.7455 222.003 21.78 222.003 20.7224C222 19.6894 221.855 18.7821 221.564 18.0096Z" fill="#00FFE0"/>
<path d="M16.4943 16.8413H6.44315C4.50586 16.8413 2.80154 17.8283 1.80225 19.3273C2.79541 18.4169 4.1135 17.8559 5.56646 17.8559H15.6177C18.6953 17.8559 21.1904 20.3511 21.1904 23.4287C21.1904 24.5721 20.844 25.6327 20.2555 26.5155C21.3682 25.5009 22.0702 24.0418 22.0702 22.4171C22.0702 19.3365 19.575 16.8413 16.4943 16.8413Z" fill="#00FFE0"/>
<path d="M30.751 2.63623H6.49198C4.55469 2.63623 2.85037 3.62327 1.85107 5.12221C2.84424 4.21181 4.16233 3.65085 5.61529 3.65085H29.8743C32.9519 3.65085 35.447 6.14603 35.447 9.22361C35.447 10.367 35.1007 11.4276 34.5121 12.3104C35.6218 11.2927 36.3237 9.83361 36.3237 8.20593C36.3268 5.13141 33.8316 2.63623 30.751 2.63623Z" fill="#00FFE0"/>
<path d="M30.7024 16.8413C28.7651 16.8413 27.0608 17.8283 26.0615 19.3273C27.0547 18.4169 28.3728 17.8559 29.8257 17.8559C32.9033 17.8559 35.3985 20.3511 35.3985 23.4287C35.3985 24.5721 35.0521 25.6327 34.4636 26.5155C35.5732 25.4978 36.2752 24.0387 36.2752 22.411C36.2752 19.3365 33.78 16.8413 30.7024 16.8413Z" fill="#00FFE0"/>
</g>
<rect x="229" y="1.60938" width="40" height="20" rx="10" fill="#FE00FF"/>
<path d="M236.929 15.6094V8.33665H239.841C240.376 8.33665 240.822 8.41596 241.18 8.57457C241.537 8.73319 241.806 8.95336 241.986 9.23509C242.166 9.51444 242.256 9.83641 242.256 10.201C242.256 10.4851 242.199 10.7348 242.085 10.9503C241.972 11.1634 241.816 11.3385 241.617 11.4759C241.42 11.6108 241.195 11.7067 240.942 11.7635V11.8345C241.219 11.8464 241.478 11.9245 241.72 12.0689C241.964 12.2133 242.161 12.4157 242.313 12.6761C242.464 12.9342 242.54 13.242 242.54 13.5994C242.54 13.9853 242.444 14.3298 242.252 14.6328C242.063 14.9335 241.782 15.1714 241.411 15.3466C241.039 15.5218 240.581 15.6094 240.036 15.6094H236.929ZM238.467 14.3523H239.72C240.149 14.3523 240.461 14.2706 240.658 14.1072C240.854 13.9415 240.953 13.7214 240.953 13.4467C240.953 13.2455 240.904 13.0679 240.807 12.9141C240.71 12.7602 240.571 12.6394 240.392 12.5518C240.214 12.4643 240.002 12.4205 239.756 12.4205H238.467V14.3523ZM238.467 11.38H239.607C239.817 11.38 240.004 11.3433 240.168 11.2699C240.334 11.1941 240.464 11.0876 240.558 10.9503C240.655 10.813 240.704 10.6484 240.704 10.4567C240.704 10.1939 240.611 9.98201 240.423 9.82102C240.239 9.66004 239.976 9.57955 239.635 9.57955H238.467V11.38ZM243.341 15.6094V8.33665H248.241V9.6044H244.878V11.3374H247.989V12.6051H244.878V14.3416H248.255V15.6094H243.341ZM248.987 9.6044V8.33665H254.96V9.6044H252.733V15.6094H251.213V9.6044H248.987ZM256.108 15.6094H254.46L256.971 8.33665H258.953L261.46 15.6094H259.812L257.99 9.99858H257.933L256.108 15.6094ZM256.005 12.7507H259.897V13.951H256.005V12.7507Z" fill="white"/>
<rect x="229" y="1.60938" width="40" height="20" rx="10" stroke="white" stroke-width="2"/>
<defs>
<clipPath id="clip0_6_11339">
<rect width="222" height="26.4108" fill="white" transform="translate(0 2.60938)"/>
</clipPath>
</defs>
</svg>
